<?xml version="1.0" encoding="iso-8859-1"?>
<!-- Generator: Adobe Illustrator 16.0.4, SVG Export Plug-In . SVG Version: 6.00 Build 0)  -->
<!DOCTYPE svg PUBLIC "-//W3C//DTD SVG 1.1//EN" "http://www.w3.org/Graphics/SVG/1.1/DTD/svg11.dtd">
<svg version="1.1" id="Layer_1" xmlns="http://www.w3.org/2000/svg" xmlns:xlink="http://www.w3.org/1999/xlink" x="0px" y="0px"
	 width="142px" height="137.5px" viewBox="0 0 142 137.5" style="enable-background:new 0 0 142 137.5;" xml:space="preserve">
<rect x="114.807" y="10.05" style="fill:#BBBCBD;" width="220.32" height="15.68"/>
<rect x="132.087" y="30.41" style="fill:#BBBCBD;" width="163.44" height="15.68"/>
<rect x="55.047" y="91.49" style="fill:#BBBCBD;" width="200.521" height="15.68"/>
<rect x="63.047" y="30.41" style="fill:#BBBCBD;" width="34.48" height="15.68"/>
<rect x="84.567" y="71.13" style="fill:#BBBCBD;" width="6.12" height="15.681"/>
<rect x="112.727" y="111.85" style="fill:#BBBCBD;" width="85.32" height="15.68"/>
<rect x="90.688" y="71.13" style="fill:#929293;" width="22.039" height="15.681"/>
<rect x="97.527" y="111.85" style="fill:#929293;" width="15.199" height="15.68"/>
<rect x="92.127" y="10.05" style="fill:#DAD9D9;" width="22.68" height="15.68"/>
<rect x="71.607" y="71.13" style="fill:#DAD9D9;" width="12.96" height="15.681"/>
<rect x="9.327" y="91.49" style="fill:#DAD9D9;" width="45.72" height="15.68"/>
<rect x="66.127" y="71.13" style="fill:#E4E3E3;" width="5.48" height="15.681"/>
<rect x="60.807" y="50.77" style="fill:#DAD9D9;" width="249.84" height="15.68"/>
<rect x="83.847" y="111.85" style="fill:#DAD9D9;" width="13.681" height="15.68"/>
<rect x="77.367" y="10.05" style="fill:#EAE9E9;" width="10.8" height="15.68"/>
<rect x="48.567" y="71.13" style="fill:#EAE9E9;" width="10.8" height="15.681"/>
<rect x="112.727" y="71.13" style="fill:#EAE9E9;" width="299.4" height="15.681"/>
</svg>
