<?xml version="1.0" encoding="iso-8859-1"?>
<!-- Generator: Adobe Illustrator 16.0.4, SVG Export Plug-In . SVG Version: 6.00 Build 0)  -->
<!DOCTYPE svg PUBLIC "-//W3C//DTD SVG 1.1//EN" "http://www.w3.org/Graphics/SVG/1.1/DTD/svg11.dtd">
<svg version="1.1" id="Layer_1" xmlns="http://www.w3.org/2000/svg" xmlns:xlink="http://www.w3.org/1999/xlink" x="0px" y="0px"
	 width="142px" height="137.5px" viewBox="0 0 142 137.5" style="enable-background:new 0 0 142 137.5;" xml:space="preserve">
<g>
	<path style="fill:none;" d="M70.712,7.24c-26.969,0-48.831,21.864-48.831,48.832c0,26.971,21.862,48.833,48.831,48.833
		s48.831-21.862,48.831-48.833C119.543,29.104,97.681,7.24,70.712,7.24z M95.6,90.408c0,1.005-0.817,1.813-1.814,1.813H82.816
		c-1.003,0-1.816-0.809-1.816-1.813V61.72c0-0.999-0.822-1.815-1.815-1.815H62.233c-1.002,0-1.814,0.812-1.814,1.815v28.688
		c0,1.005-0.812,1.813-1.816,1.813H47.64c-0.999,0-1.815-0.809-1.815-1.813V20.635c0-1.003,0.812-1.815,1.815-1.815h10.968
		c1,0,1.816,0.812,1.816,1.815v26.967c0,0.999,0.812,1.815,1.815,1.815h16.954c0.997,0,1.814-0.816,1.814-1.815V20.635
		c0-1.003,0.815-1.815,1.815-1.815h10.966c1.002,0,1.814,0.812,1.814,1.815L95.6,90.408L95.6,90.408z"/>
	<path style="fill:#3D7399;" d="M70.712,3.667c-28.693,0-51.95,23.26-51.95,51.951c0,49.049,51.95,78.966,51.95,78.966
		s51.95-29.661,51.95-78.966C122.662,26.927,99.401,3.667,70.712,3.667z M70.712,104.905c-26.969,0-48.831-21.862-48.831-48.833
		c0-26.967,21.862-48.832,48.831-48.832s48.831,21.864,48.831,48.832C119.543,83.043,97.681,104.905,70.712,104.905z"/>
	<circle style="fill:#FFFFFF;" cx="70.712" cy="56.073" r="48.833"/>
	<path style="fill:#3D7399;" d="M93.78,19.374H82.816c-1.003,0-1.816,0.811-1.816,1.815v26.967c0,1-0.822,1.815-1.815,1.815H62.229
		c-0.999,0-1.814-0.816-1.814-1.815V21.188c0-1.004-0.817-1.815-1.815-1.815H47.636c-0.999,0-1.815,0.811-1.815,1.815v69.772
		c0,1.006,0.812,1.816,1.815,1.816H58.6c1.003,0,1.815-0.811,1.815-1.816V62.274c0-1.003,0.811-1.815,1.814-1.815h16.955
		c0.997,0,1.807,0.812,1.807,1.815v28.687c0,1.006,0.817,1.816,1.816,1.816H93.78c1.002,0,1.817-0.811,1.817-1.816V21.188
		C95.598,20.185,94.782,19.374,93.78,19.374z"/>
</g>
</svg>
