<?xml version="1.0" encoding="iso-8859-1"?>
<!-- Generator: Adobe Illustrator 16.0.4, SVG Export Plug-In . SVG Version: 6.00 Build 0)  -->
<!DOCTYPE svg PUBLIC "-//W3C//DTD SVG 1.1//EN" "http://www.w3.org/Graphics/SVG/1.1/DTD/svg11.dtd">
<svg version="1.1" id="Layer_1" xmlns="http://www.w3.org/2000/svg" xmlns:xlink="http://www.w3.org/1999/xlink" x="0px" y="0px"
	 width="444px" height="408px" viewBox="0 0 444 408" style="enable-background:new 0 0 444 408;" xml:space="preserve">
<g>
	<path style="fill-rule:evenodd;clip-rule:evenodd;" d="M140.082,40.056c-4.543-0.498-8.261-0.498-11.757-1.376
		c-6.523-1.639-10.333-6.992-9.933-13.102c0.413-6.303,5.094-11.103,11.844-11.989c1.806-0.237,3.657-0.169,5.488-0.17
		c57.634-0.016,115.269-0.009,172.902-0.053c6.292-0.005,12.145,0.9,15.166,7.271c4.2,8.855-1.028,17.464-11.237,18.712
		c-2.771,0.338-5.587,0.302-8.908,0.463c0,2.268,0,4.223,0,6.178c0.005,89.617,0.004,179.232,0.018,268.848
		c0.006,38.938-23.516,71.141-61.024,81.288c-35.235,9.531-72.083-5.449-90.967-37.4c-7.518-12.72-11.519-26.461-11.525-41.278
		c-0.035-90.116-0.046-180.231-0.066-270.346C140.082,44.807,140.082,42.513,140.082,40.056z M275.723,217.322
		c0-59.55,0-118.544,0-177.593c-36.143,0-71.871,0-108.112,0c0,2.091,0,3.727,0,5.363c0.002,43.799-0.005,87.599,0.023,131.397
		c0.003,4.641-1.456,10.527,0.808,13.569c2.207,2.962,8.317,3.032,12.724,4.337c1.75,0.518,3.518,0.978,5.292,1.41
		c17.908,4.357,35.814,8.721,53.73,13.045C251.933,211.686,263.693,214.457,275.723,217.322z"/>
	<path style="fill-rule:evenodd;clip-rule:evenodd;fill:#FFFFFF;" d="M275.723,217.322c-12.029-2.865-23.79-5.637-35.535-8.471
		c-17.916-4.324-35.822-8.688-53.73-13.045c-1.774-0.432-3.542-0.892-5.292-1.41c-4.407-1.306-10.517-1.375-12.724-4.337
		c-2.264-3.042-0.805-8.928-0.808-13.569c-0.028-43.799-0.021-87.598-0.023-131.397c0-1.637,0-3.272,0-5.363
		c36.241,0,71.97,0,108.112,0C275.723,98.778,275.723,157.772,275.723,217.322z M223.297,139.993
		c-11.105-0.031-20.434,9.09-20.506,20.052c-0.073,11.122,9.059,20.465,20.062,20.526c11.51,0.063,20.763-8.993,20.743-20.303
		C243.578,149.264,234.327,140.024,223.297,139.993z M213.348,115.861c7.872,0.026,13.607-5.597,13.668-13.4
		c0.057-7.26-5.899-13.335-13.197-13.462c-7.455-0.13-13.665,6.012-13.648,13.498C200.186,109.909,206.032,115.837,213.348,115.861z
		 M247.813,110.965c-5.467,0.075-9.613,4.384-9.567,9.944c0.045,5.415,4.416,9.902,9.649,9.908
		c5.531,0.006,10.043-4.677,9.869-10.244C257.593,115.051,253.283,110.89,247.813,110.965z"/>
	<path style="fill-rule:evenodd;clip-rule:evenodd;" d="M223.297,139.993c11.03,0.031,20.281,9.271,20.299,20.274
		c0.02,11.31-9.233,20.367-20.743,20.303c-11.003-0.061-20.135-9.404-20.062-20.526
		C202.863,149.083,212.191,139.962,223.297,139.993z"/>
	<path style="fill-rule:evenodd;clip-rule:evenodd;" d="M213.348,115.861c-7.316-0.024-13.162-5.953-13.178-13.364
		c-0.016-7.486,6.193-13.628,13.648-13.498c7.298,0.127,13.254,6.202,13.197,13.462
		C226.955,110.264,221.219,115.888,213.348,115.861z"/>
	<path style="fill-rule:evenodd;clip-rule:evenodd;" d="M247.813,110.965c5.47-0.075,9.779,4.085,9.951,9.608
		c0.174,5.567-4.338,10.25-9.869,10.244c-5.233-0.006-9.604-4.494-9.649-9.908C238.2,115.35,242.347,111.041,247.813,110.965z"/>
</g>
</svg>
