<?xml version="1.0" encoding="iso-8859-1"?>
<!-- Generator: Adobe Illustrator 16.0.4, SVG Export Plug-In . SVG Version: 6.00 Build 0)  -->
<!DOCTYPE svg PUBLIC "-//W3C//DTD SVG 1.1//EN" "http://www.w3.org/Graphics/SVG/1.1/DTD/svg11.dtd">
<svg version="1.1" id="Layer_1" xmlns="http://www.w3.org/2000/svg" xmlns:xlink="http://www.w3.org/1999/xlink" x="0px" y="0px"
	 width="127.493px" height="144px" viewBox="0 0 127.493 144" style="enable-background:new 0 0 127.493 144;" xml:space="preserve"
	>
<g>
	<path style="fill-rule:evenodd;clip-rule:evenodd;" d="M117.746,50.853c-22.147,14.612-18.74,44.699,4.343,55.478
		c-5.118,11.624-11.425,22.446-20.978,31.01c-6.038,5.413-13.069,6.312-20.396,2.701c-9.6-4.729-19.055-4.6-28.805-0.277
		c-9.806,4.345-16.681,3.209-23.868-4.775C10.236,115.212,0.676,92.395,6.558,65.479c4.773-21.841,25.506-32.767,46.504-25.095
		c8.796,3.213,16.86,3.234,25.598-0.219C93.577,34.271,108.385,38.571,117.746,50.853z"/>
	<path style="fill-rule:evenodd;clip-rule:evenodd;" d="M62.057,37.487C59.351,23.264,71.615,8.52,88.679,5.484
		C92.376,20.322,76.864,38.969,62.057,37.487z"/>
</g>
</svg>
