<?xml version="1.0" encoding="iso-8859-1"?>
<!-- Generator: Adobe Illustrator 16.0.4, SVG Export Plug-In . SVG Version: 6.00 Build 0)  -->
<!DOCTYPE svg PUBLIC "-//W3C//DTD SVG 1.1//EN" "http://www.w3.org/Graphics/SVG/1.1/DTD/svg11.dtd">
<svg version="1.1" id="Layer_1" xmlns="http://www.w3.org/2000/svg" xmlns:xlink="http://www.w3.org/1999/xlink" x="0px" y="0px"
	 width="200px" height="200px" viewBox="0 0 200 200" style="enable-background:new 0 0 200 200;" xml:space="preserve">
<g>
	<path style="fill-rule:evenodd;clip-rule:evenodd;" d="M109,1c5.641,1.297,11.363,2.315,16.91,3.933
		c52.273,15.244,78.24,72.77,55.163,122.053c-0.692,1.479-1.515,2.896-2.449,4.673c-3.163-2.55-5.884-5.01-8.874-7.081
		c-3.174-2.199-5.428-4.422-2.275-8.526c-3.025,0-5.812,0.646-8.061-0.178c-2.346-0.86-4.169-3.14-6.734-5.213
		c3.758-1.352,6.965-2.409,10.098-3.651c6.581-2.61,10.322-7.517,10.016-14.597c-0.339-7.85-1.416-15.666-2.183-23.621
		c-9.726,2.482-18.044,4.606-26.875,6.861c0,8.673,0,17.571,0,27.184c-5.868-3.706-11.135-6.54-9.722-14.377
		c0.664-3.686,0.113-7.59,0.113-11.98c-10.086,0.549-19.636,1.068-29.502,1.605c0,12.679,0,25.093,0,37.949c4.037,0,7.93,0,12.047,0
		c0.496,3.098,0.93,5.8,1.432,8.936c-4.725,0.452-8.976,0.859-13.505,1.294c0,11.575,0,22.987,0,34.391
		c6.315,0.233,8.604-1.498,17.265-13.208c1.533,9.006,2.956,17.366,4.58,26.904c-7.078,1.159-13.822,2.738-20.652,3.308
		C51.85,182.155,6.286,137.916,9.139,84C11.317,42.853,44.476,7.368,85.712,2.021C87.161,1.832,88.572,1.347,90,1
		C96.333,1,102.666,1,109,1z M63.57,76.211c0.647,12.074,1.237,23.806,1.993,35.525c0.052,0.81,1.276,2.118,2.077,2.218
		c8.523,1.058,17.071,1.917,25.926,2.865c0-13.523,0-26.056,0-38.619C83.75,77.549,74.313,76.923,63.57,76.211z M104.555,67.913
		c5.148,0,9.784,0.149,14.406-0.043c4.445-0.186,8.875-0.726,13.294-1.107c-1.073-20.131-16.083-46.41-27.7-48.412
		C104.555,34.77,104.555,51.144,104.555,67.913z M28.74,68.714c-3.205,9.58-3.302,19.183-2.694,28.832
		c0.065,1.033,0.716,2.314,1.514,2.973c8.029,6.626,17.553,9.353,27.188,10.999c0-12.564,0-24.467,0-36.25
		C45.972,73.056,37.619,70.951,28.74,68.714z M65.512,67.021c10.015,0.495,19.026,0.941,28.151,1.394c0-17.333,0-33.716,0-51.548
		C74.778,28.896,70.17,47.404,65.512,67.021z M127.291,23.328c8.436,12.784,12.226,27.118,15.094,42.749
		c7.9-2.146,15.414-4.187,23.673-6.43C157.254,41.831,144.852,29.888,127.291,23.328z M54.561,65.16
		c5.225-14.208,10.198-27.733,15.094-41.049C53.569,30.628,41.03,41.968,32.616,59.27C40.533,61.395,47.831,63.354,54.561,65.16z
		 M67.986,124.563c4.151,12.446,8.238,23.634,16.73,32.477c2.094,2.18,5.419,3.176,8.815,5.071c0-12.881,0-24.395,0-35.957
		C85.192,125.635,77.267,125.142,67.986,124.563z M68.618,154.763c-3.447-9.808-6.9-19.753-10.48-29.652
		c-0.392-1.082-1.341-2.457-2.319-2.756c-8.172-2.496-16.411-4.772-25.429-7.343C38.455,133.782,51.079,147.073,68.618,154.763z"/>
	<path style="fill-rule:evenodd;clip-rule:evenodd;" d="M119.664,92.297c24.846,20.114,48.715,39.439,73.195,59.26
		c-8.748,2.375-16.689,4.532-25.14,6.827c6.526,11.271,12.849,22.188,19.535,33.734c-4.491,2.549-8.897,5.05-13.802,7.833
		c-6.526-11.135-12.957-22.108-19.766-33.726c-6.16,5.886-11.981,11.447-18.701,17.866
		C129.854,153.341,124.87,123.482,119.664,92.297z"/>
</g>
</svg>
