<?xml version="1.0" encoding="utf-8"?>
<!-- Generator: Adobe Illustrator 18.1.1, SVG Export Plug-In . SVG Version: 6.00 Build 0)  -->
<!DOCTYPE svg PUBLIC "-//W3C//DTD SVG 1.1//EN" "http://www.w3.org/Graphics/SVG/1.1/DTD/svg11.dtd">
<svg version="1.1" id="Layer_1" xmlns="http://www.w3.org/2000/svg" xmlns:xlink="http://www.w3.org/1999/xlink" x="0px" y="0px"
	 viewBox="0 0 1505.8 531.5" enable-background="new 0 0 1505.8 531.5" xml:space="preserve">
<path fill="#E6E7E8" stroke="#474751" stroke-width="3" stroke-linecap="round" stroke-linejoin="round" stroke-miterlimit="10" d="
	M704.9,428.2l167.1-111.5l471-153.6l66.1-53.4l69.5-89.2l-0.1,510.3l-0.4-0.5L26.9,531h-3.5c-3.1,0-5.6-0.2-5.6-0.5v-29.6
	c0-1.9,0-4.3,5.6-4.3l169.7-2.5l356.9-4.6l153.4-59.8"/>
<path fill="#F4D37A" stroke="#474751" stroke-width="3" stroke-miterlimit="10" d="M708.8,530.8l-690.9,0c0,0,9.7-1.9,16.4-3.8
	c7-1.9,11-5.1,12.6-6.1c1.8-1.1,6.4-4.1,9.9-7c3-2.5,4.4-3.6,6.3-4.8c0.8-0.5,5-3.3,5.9-3.8c0.4-0.2,4.3-2.2,5.5-2.6
	c0.6-0.2,2.9-1.2,5.4-1.2h690.9"/>
<text transform="matrix(1 0 0 1 244.9862 523.0704)" fill="#32353C" font-family="'GillSans-SemiBold'" font-size="14">NEW STONE AGE</text>
<text transform="matrix(1 0 0 1 20.2435 459.6495)" fill="#929497" font-family="'GillSans-SemiBold'" font-size="18">Life Expectancy (World Average)</text>
<path fill="#FFFFFF" stroke="#32353C" stroke-width="2" stroke-miterlimit="10" d="M852,459.2c0,6.6-0.3,7-6.9,7h-14.5l-5.8,6.4
	l-5.7-6.4h-14.7c-6.6,0-6.8-0.3-6.8-7v-15.2c0-6.6,0.1-7.7,6.8-7.7l40.8,0c6.6,0,6.8,0.9,6.8,7.6V459.2z"/>
<text transform="matrix(1 0 0 1 815.3233 457.2164)" fill="#32353C" font-family="'GillSans-SemiBold'" font-size="18">26</text>
<path fill="#F4D37A" stroke="#474751" stroke-width="3" stroke-miterlimit="10" d="M706,530.8l-163.9,0c0,0,9.7-2.6,16.4-5.1
	c7-2.6,11-6.9,12.6-8.2c1.8-1.4,6.4-5.6,9.9-9.5c3-3.3,4.4-4.9,6.3-6.5c0.8-0.7,5-4.4,5.9-5.1c0.4-0.3,4.3-2.9,5.5-3.5
	c0.6-0.3,2.9-1.6,5.4-1.6H768"/>
<text transform="matrix(1 0 0 1 593.5635 523.0704)" fill="#32353C" font-family="'GillSans-SemiBold'" font-size="14">BRONZE AGE</text>
<path fill="#F4D37A" stroke="#474751" stroke-width="3" stroke-miterlimit="10" d="M845.1,530.8l-163.9,0c0,0,9.7-2.6,16.4-5.1
	c7-2.6,11-6.9,12.6-8.2c1.8-1.4,6.4-5.6,9.9-9.5c3-3.3,4.4-4.9,6.3-6.5c0.8-0.7,5-4.4,5.9-5.1c0.4-0.3,4.3-2.9,5.5-3.5
	c0.6-0.3,2.9-1.6,5.4-1.6H907"/>
<path fill="#F4D37A" stroke="#474751" stroke-width="3" stroke-miterlimit="10" d="M937,530.8l-163.9,0c0,0,9.7-2.9,16.4-5.6
	c7-2.9,11-7.7,12.6-9.1c1.8-1.6,6.4-6.2,9.9-10.5c3-3.7,4.4-5.4,6.3-7.2c0.8-0.8,5-4.9,5.9-5.6c0.4-0.3,4.3-3.2,5.5-3.9
	c0.6-0.3,2.9-1.8,5.4-1.8h163.9"/>
<text transform="matrix(1 0 0 1 716.2969 523.0704)" fill="#32353C" font-family="'GillSans-SemiBold'" font-size="14">IRON AGE</text>
<text transform="matrix(1 0 0 1 819.7964 523.0704)" fill="#32353C" font-family="'GillSans-SemiBold'" font-size="14">MEDIEVAL AGE</text>
<path fill="#F4D37A" stroke="#474751" stroke-width="3" stroke-miterlimit="10" d="M1087.8,530.8l-163.9,0c0,0,9.7-3,16.4-6
	c7-3.1,11-8.2,12.6-9.7c1.8-1.7,6.4-6.6,9.9-11.2c3-3.9,4.4-5.8,6.3-7.7c0.8-0.8,5-5.2,5.9-6c0.4-0.4,4.3-3.5,5.5-4.1
	c0.6-0.4,2.9-2,5.4-2h163.9"/>
<path fill="#F4D37A" stroke="#474751" stroke-width="3" stroke-miterlimit="10" d="M1218,530.8l-163.9,0c0,0,9.7-5,16.4-9.8
	c7-5,11-13.4,12.6-15.9c1.8-2.8,6.4-10.8,9.9-18.4c3-6.4,4.4-9.5,6.3-12.6c0.8-1.4,5-8.5,5.9-9.8c0.4-0.6,4.3-5.7,5.5-6.8
	c0.6-0.6,2.9-3.2,5.4-3.2H1280"/>
<path fill="#F4D37A" stroke="#474751" stroke-width="3" stroke-miterlimit="10" d="M1263.1,530.8l-163.9,0c0,0,9.7-5.4,16.4-10.7
	c7-5.5,11-14.5,12.6-17.2c1.8-3,6.4-11.7,9.9-19.9c3-7,4.4-10.3,6.3-13.7c0.8-1.5,5-9.2,5.9-10.7c0.4-0.6,4.3-6.1,5.5-7.4
	c0.6-0.7,2.9-3.5,5.4-3.5H1325"/>
<path fill="#F4D37A" stroke="#474751" stroke-width="3" stroke-miterlimit="10" d="M1366.4,414.2c0,0,0,87.6,0,113.2
	c0,1.1,0,2.2-0.4,2.7c-0.5,0.6-0.7,0.7-2.6,0.7c-26.6,0-220.5,0-220.5,0s9.7-7.6,16.4-15.1c7-7.7,11-20.5,12.6-24.3
	c1.8-4.3,6.4-16.5,9.9-28.1c3-9.8,4.4-14.5,6.3-19.3c0.8-2.1,5-13,5.9-15c0.4-0.9,4.3-8.7,5.5-10.4c0.6-0.9,2.9-4.9,5.4-4.9
	c0,0,131.9-0.1,157.6-0.1C1365.3,413.7,1366.4,413.6,1366.4,414.2"/>
<path fill="#32353C" d="M819.8,491.5c0-2.8,2.2-5,5-5c2.8,0,5,2.2,5,5c0,2.8-2.2,5-5,5C822.1,496.5,819.8,494.2,819.8,491.5z"/>
<g>
	<path fill="#FFFFFF" stroke="#32353C" stroke-width="2" stroke-miterlimit="10" d="M1004,452.5c0,6.6-0.3,7-6.9,7h-14.5l-5.8,6.4
		l-5.7-6.4h-14.7c-6.6,0-6.8-0.3-6.8-7v-15.2c0-6.6,0.1-7.7,6.8-7.7l40.8,0c6.6,0,6.8,0.9,6.8,7.6V452.5z"/>
	<circle fill="#32353C" cx="976.8" cy="486.9" r="5"/>
	<text transform="matrix(1 0 0 1 967.3221 450.8858)" fill="#32353C" font-family="'GillSans-SemiBold'" font-size="18">30</text>
</g>
<text transform="matrix(1 0 0 1 979.4727 508.8961)"><tspan x="0" y="0" fill="#32353C" font-family="'GillSans-SemiBold'" font-size="14">EARLY 20TH</tspan><tspan x="7.7" y="14" fill="#32353C" font-family="'GillSans-SemiBold'" font-size="14">CENTURY</tspan></text>
<g>
	<circle fill="#32353C" cx="1153.2" cy="454.3" r="5"/>
	<path fill="#FFFFFF" stroke="#32353C" stroke-width="2" stroke-miterlimit="10" d="M1172.4,421.8c0,6.6-0.3,7-6.9,7h-6.5l-5.8,6.4
		l-5.7-6.4h-6.7c-6.6,0-6.8-0.3-6.8-7v-15.2c0-6.6,0.1-7.7,6.8-7.7l24.7,0c6.6,0,6.8,0.9,6.8,7.6V421.8z"/>
	<text transform="matrix(1 0 0 1 1143.7469 420.1544)" fill="#32353C" font-family="'GillSans-SemiBold'" font-size="18">52</text>
</g>
<circle fill="#32353C" cx="1185.6" cy="447.8" r="5"/>
<path fill="#FFFFFF" stroke="#32353C" stroke-width="2" stroke-miterlimit="10" d="M1205.8,414.4c0,6.6-0.3,7-6.9,7h-7.5l-5.8,6.4
	l-5.7-6.4h-7.7c-6.6,0-6.8-0.3-6.8-7v-15.2c0-6.6,0.1-7.7,6.8-7.7l26.7,0c6.6,0,6.8,0.9,6.8,7.6V414.4z"/>
<text transform="matrix(1 0 0 1 1176.1434 413.6553)" fill="#32353C" font-family="'GillSans-SemiBold'" font-size="18">56</text>
<circle fill="#32353C" cx="1093.4" cy="484.1" r="5"/>
<path fill="#FFFFFF" stroke="#32353C" stroke-width="2" stroke-miterlimit="10" d="M1120.6,450.5c0,6.6-0.3,7-6.9,7h-14.5l-5.8,6.4
	l-5.7-6.4H1073c-6.6,0-6.8-0.3-6.8-7v-15.2c0-6.6,0.1-7.7,6.8-7.7l40.8,0c6.6,0,6.8,0.9,6.8,7.6V450.5z"/>
<text transform="matrix(1 0 0 1 1083.9286 448.796)" fill="#32353C" font-family="'GillSans-SemiBold'" font-size="18">32</text>
<path fill="#F4D37A" stroke="#474751" stroke-width="3" stroke-miterlimit="10" d="M1409.2,377.9c0,0,0,115.3,0,148.9
	c0,1.4,0,2.9-0.4,3.5c-0.5,0.8-0.7,0.9-2.6,0.9c-26.6,0-108.6-0.5-108.6-0.5s9.7-10,16.4-19.8c7-10.2,11-26.9,12.6-32
	c1.8-5.6,6.4-21.7,9.9-37c3-13,4.4-19.1,6.3-25.4c0.8-2.8,5-17.1,5.9-19.8c0.4-1.2,4.3-11.4,5.5-13.7c0.6-1.2,2.9-6.4,5.4-6.4
	c0,0,20,0.3,45.7,0.3C1408.1,377.2,1409.2,377.1,1409.2,377.9"/>
<text transform="matrix(1 0 0 1 1199.309 507.4879)" fill="#32353C" font-family="'GillSans-SemiBold'" font-size="14">SILICON AGE</text>
<g>
	<path fill="#FFFFFF" stroke="#32353C" stroke-width="2" stroke-miterlimit="10" d="M0,495.9c0-10,8.1-18.1,18.1-18.1
		c10,0,18.1,8.1,18.1,18.1c0,10-8.1,18.1-18.1,18.1C8.1,514,0,505.9,0,495.9z"/>
	<text transform="matrix(1 0 0 1 4.8228 501.5782)" fill="#32353C" font-family="'GillSans-SemiBold'" font-size="18">4M</text>
</g>
<g>
	<path fill="#FFFFFF" stroke="#32353C" stroke-width="2" stroke-miterlimit="10" d="M765.3,459.2c0,6.6-0.3,7-6.9,7h-14.5l-5.8,6.4
		l-5.7-6.4h-14.7c-6.6,0-6.8-0.3-6.8-7v-15.2c0-6.6,0.1-7.7,6.8-7.7l40.8,0c6.6,0,6.8,0.9,6.8,7.6V459.2z"/>
	<text transform="matrix(1 0 0 1 728.6553 457.2164)" fill="#32353C" font-family="'GillSans-SemiBold'" font-size="18">26</text>
	<circle fill="#32353C" cx="738.2" cy="491.9" r="5"/>
</g>
<g>
	<path fill="#FFFFFF" stroke="#32353C" stroke-width="2" stroke-miterlimit="10" d="M175.1,494.1c0-10,8.1-18.1,18.1-18.1
		c10,0,18.1,8.1,18.1,18.1c0,10-8.1,18.1-18.1,18.1C183.2,512.1,175.1,504,175.1,494.1z"/>
	<text transform="matrix(1 0 0 1 179.8922 500.1754)" fill="#32353C" font-family="'GillSans-SemiBold'" font-size="18">5M</text>
</g>
<g>
	<circle fill="#32353C" cx="587" cy="501.6" r="5"/>
	<path fill="#FFFFFF" stroke="#32353C" stroke-width="2" stroke-miterlimit="10" d="M614.1,474.7c0,6.6-0.3,7-6.9,7h-14.5l-5.8,6.4
		l-5.7-6.4h-14.7c-6.6,0-6.8-0.3-6.8-7v-15.2c0-6.6,0.1-7.7,6.8-7.7l40.8,0c6.6,0,6.8,0.9,6.8,7.6V474.7z"/>
	<text transform="matrix(1 0 0 1 577.4483 473.2618)" fill="#32353C" font-family="'GillSans-SemiBold'" font-size="18">20</text>
</g>
<g>
	<path fill="#FFFFFF" stroke="#32353C" stroke-width="2" stroke-miterlimit="10" d="M531.9,489.5c0-10,8.1-18.1,18.1-18.1
		c10,0,18.1,8.1,18.1,18.1c0,10-8.1,18.1-18.1,18.1C540,507.6,531.9,499.5,531.9,489.5z"/>
	<text transform="matrix(1 0 0 1 536.7505 495.6031)" fill="#32353C" font-family="'GillSans-SemiBold'" font-size="18">7M</text>
</g>
<g>
	<path fill="#FFFFFF" stroke="#32353C" stroke-width="2" stroke-miterlimit="10" d="M681.1,429.2c0-10,8.1-18.1,18.1-18.1
		c10,0,18.1,8.1,18.1,18.1c0,10-8.1,18.1-18.1,18.1C689.2,447.3,681.1,439.2,681.1,429.2z"/>
	<text transform="matrix(1 0 0 1 684.0887 435.3008)" fill="#32353C" font-family="'GillSans-SemiBold'" font-size="16">27M</text>
</g>
<g>
	<path fill="#FFFFFF" stroke="#32353C" stroke-width="2" stroke-miterlimit="10" d="M853,317.7c0-10.5,8.5-19.1,19.1-19.1
		c10.5,0,19.1,8.6,19.1,19.1c0,10.5-8.5,19.1-19.1,19.1C861.5,336.8,853,328.3,853,317.7z"/>
	<text transform="matrix(1 0 0 1 854.1331 322.8619)" fill="#32353C" font-family="'GillSans-SemiBold'" font-size="14">170M</text>
</g>
<text transform="matrix(1 0 0 1 20.2435 434.3008)" fill="#929497" font-family="'GillSans-SemiBold'" font-size="18">World Population  </text>
<g>
	<path fill="#FFFFFF" stroke="#32353C" stroke-width="2" stroke-miterlimit="10" d="M1388.6,109.8c0-11.3,9.2-20.6,20.6-20.6
		c11.4,0,20.6,9.2,20.6,20.6c0,11.4-9.2,20.6-20.6,20.6C1397.8,130.3,1388.6,121.1,1388.6,109.8z"/>
	<text transform="matrix(1 0 0 1 1390.8265 116.2188)" fill="#32353C" font-family="'GillSans-SemiBold'" font-size="18">8.1B</text>
</g>
<path fill="#F4D37A" stroke="#474751" stroke-width="3" stroke-miterlimit="10" d="M1478.7,318.2c0,0,0,160.3,0,207.1
	c0,1.9,0,4-0.4,4.9c-0.5,1.1-0.7,1.3-2.6,1.3c-26.6,0.1-127.6-0.7-127.6-0.7s9.7-13.9,16.4-27.5c7-14.1,11-37.5,12.6-44.5
	c1.8-7.8,6.4-30.2,9.9-51.4c3-18,4.4-26.5,6.3-35.3c0.8-3.8,5-23.8,5.9-27.5c0.4-1.7,4.3-15.8,5.5-19c0.6-1.7,2.9-8.9,5.4-8.9
	c0,0,39,0.4,64.7,0.4C1477.5,317.2,1478.7,317.1,1478.7,318.2"/>
<text transform="matrix(1 0 0 1 1362.3158 508.8965)" fill="#32353C" font-family="'GillSans-SemiBold'" font-size="14">NANO-ERA</text>
<g>
	<circle fill="#32353C" cx="1392.4" cy="377.4" r="5"/>
	<path fill="#FFFFFF" stroke="#32353C" stroke-width="2" stroke-miterlimit="10" d="M1419.6,345.3c0,6.6-0.3,7-6.9,7h-14.5l-5.8,6.4
		l-5.7-6.4H1372c-6.6,0-6.8-0.3-6.8-7v-15.2c0-6.6,0.1-7.7,6.8-7.7l40.8,0c6.6,0,6.8,0.9,6.8,7.6V345.3z"/>
	<text transform="matrix(1 0 0 1 1382.9423 343.546)" fill="#32353C" font-family="'GillSans-SemiBold'" font-size="18">95</text>
</g>
<g>
	<circle fill="#32353C" cx="1478.7" cy="317.5" r="5"/>
	<path fill="#FFFFFF" stroke="#32353C" stroke-width="2" stroke-miterlimit="10" d="M1505.8,285.4c0,6.6-0.3,7-6.9,7h-14.5l-5.8,6.4
		l-5.7-6.4h-14.7c-6.6,0-6.8-0.3-6.8-7v-15.2c0-6.6,0.1-7.7,6.8-7.7l40.8,0c6.6,0,6.8,0.9,6.8,7.6V285.4z"/>
	<text transform="matrix(1 0 0 1 1464.4032 283.6031)" fill="#32353C" font-family="'GillSans-SemiBold'" font-size="18">120</text>
</g>
<g>
	<path fill="#FFFFFF" stroke="#32353C" stroke-width="2" stroke-miterlimit="10" d="M1456.2,20.6c0-11.3,9.2-20.6,20.6-20.6
		c11.4,0,20.6,9.2,20.6,20.6c0,11.4-9.2,20.6-20.6,20.6C1465.4,41.1,1456.2,31.9,1456.2,20.6z"/>
	<text transform="matrix(1 0 0 1 1458.3939 27.0245)" fill="#32353C" font-family="'GillSans-SemiBold'" font-size="18">9.6B</text>
</g>
<line fill="none" stroke="#32353C" stroke-linecap="round" stroke-linejoin="round" stroke-miterlimit="10" stroke-dasharray="2" x1="1343.1" y1="541.1" x2="1343.1" y2="177.1"/>
<g>
	<path fill="#32353C" d="M1338.1,413.7c0-2.8,2.2-5,5-5c2.8,0,5,2.2,5,5c0,2.8-2.2,5-5,5C1340.3,418.7,1338.1,416.4,1338.1,413.7z"
		/>
	<path fill="#FFFFFF" stroke="#32353C" stroke-width="2" stroke-miterlimit="10" d="M1370.2,381.5c0,6.6-0.3,7-6.9,7h-14.5l-5.8,6.4
		l-5.7-6.4h-14.7c-6.6,0-6.8-0.3-6.8-7v-15.2c0-6.6,0.1-7.7,6.8-7.7l40.8,0c6.6,0,6.8,0.9,6.8,7.6V381.5z"/>
	<text transform="matrix(1 0 0 1 1333.5756 379.796)" fill="#32353C" font-family="'GillSans-SemiBold'" font-size="18">73</text>
</g>
<g>
	<path fill="#FFFFFF" stroke="#32353C" stroke-width="2" stroke-miterlimit="10" d="M1321.6,163.2c0-11.3,9.2-20.6,20.6-20.6
		c11.4,0,20.6,9.2,20.6,20.6c0,11.4-9.2,20.6-20.6,20.6C1330.8,183.8,1321.6,174.6,1321.6,163.2z"/>
	<text transform="matrix(1 0 0 1 1323.7577 168.6641)" fill="#32353C" font-family="'GillSans-SemiBold'" font-size="18">7.2B</text>
</g>
</svg>
