<?xml version="1.0" encoding="utf-8"?>
<!-- Generator: Adobe Illustrator 16.0.4, SVG Export Plug-In . SVG Version: 6.00 Build 0)  -->
<!DOCTYPE svg PUBLIC "-//W3C//DTD SVG 1.1//EN" "http://www.w3.org/Graphics/SVG/1.1/DTD/svg11.dtd">
<svg version="1.1" id="Layer_1" xmlns:sketch="http://www.bohemiancoding.com/sketch/ns"
	 xmlns="http://www.w3.org/2000/svg" xmlns:xlink="http://www.w3.org/1999/xlink" x="0px" y="0px" width="83px" height="25px"
	 viewBox="0 0 83 25" enable-background="new 0 0 83 25" xml:space="preserve">
<title>Imported Layers</title>
<description>Created with Sketch.</description>
<g id="Page-1" sketch:type="MSPage">
	<g id="Artboard-1" transform="translate(-828.000000, -286.000000)" sketch:type="MSArtboardGroup">
		<g id="Imported-Layers" transform="translate(828.000000, 286.000000)" sketch:type="MSLayerGroup">
			<path id="Fill-1" sketch:type="MSShapeGroup" fill="#C6C8CA" d="M3.459,11.855H0.147V7.793h3.406V6.761
				c0-4.998,2.281-6.739,6.78-6.739c1.219,0,2.156,0.193,2.875,0.322l-0.344,3.998c-0.469-0.161-0.938-0.258-1.781-0.258
				c-1.438,0-2,1.032-2,2.676v1.032h4v4.062h-4V24.59H3.459V11.855"/>
			<path id="Fill-2" sketch:type="MSShapeGroup" fill="#C6C8CA" d="M16.02,0.409h5.624V24.59H16.02V0.409z"/>
			<path id="Fill-3" sketch:type="MSShapeGroup" fill="#C6C8CA" d="M26.455,0.796h5.624v4.256h-5.624V0.796z"/>
			<path id="Fill-4" sketch:type="MSShapeGroup" fill="#C6C8CA" d="M26.455,7.793h5.624V24.59h-5.624V7.793z"/>
			<path id="Fill-5" sketch:type="MSShapeGroup" fill="#C6C8CA" d="M48.982,12.597c-1.031-0.645-2.062-0.935-3.405-0.935
				c-2.437,0-4.312,1.74-4.312,4.643c0,2.676,2.188,4.416,4.625,4.416c1.28,0,2.561-0.289,3.498-0.805l0.125,4.319
				c-1.405,0.484-3.093,0.742-4.592,0.742c-5.375,0-9.468-3.224-9.468-8.771c0-5.577,4.093-8.801,9.468-8.801
				c1.687,0,3.187,0.291,4.467,0.935L48.982,12.597"/>
			<path id="Fill-6" sketch:type="MSShapeGroup" fill="#C6C8CA" d="M51.857,0.409h5.624v14.444h0.063l4.686-7.061h6.156
				l-5.656,7.705l6.125,9.092h-6.812l-4.498-8.317h-0.063v8.317h-5.624V0.409"/>
			<path id="Fill-7" sketch:type="MSShapeGroup" fill="#C6C8CA" d="M82.57,12.435c-0.624-0.193-1.25-0.193-1.905-0.193
				c-2.624,0-4.093,1.967-4.093,5.256v7.092h-5.625V7.793h5.125v3.095h0.062c0.969-2.128,2.375-3.482,4.812-3.482
				c0.654,0,1.342,0.097,1.905,0.194L82.57,12.435"/>
		</g>
	</g>
</g>
</svg>
