<?xml version="1.0" encoding="utf-8"?>
<!-- Generator: Adobe Illustrator 16.0.4, SVG Export Plug-In . SVG Version: 6.00 Build 0)  -->
<!DOCTYPE svg PUBLIC "-//W3C//DTD SVG 1.1//EN" "http://www.w3.org/Graphics/SVG/1.1/DTD/svg11.dtd">
<svg version="1.1" id="Layer_1" xmlns:sketch="http://www.bohemiancoding.com/sketch/ns"
	 xmlns="http://www.w3.org/2000/svg" xmlns:xlink="http://www.w3.org/1999/xlink" x="0px" y="0px" width="24px" height="25px"
	 viewBox="0 0 24 25" enable-background="new 0 0 24 25" xml:space="preserve">
<title>Imported Layers</title>
<description>Created with Sketch.</description>
<g id="Page-1" sketch:type="MSPage">
	<g id="Artboard-1" transform="translate(-723.000000, -285.000000)" sketch:type="MSArtboardGroup">
		<path id="Imported-Layers" sketch:type="MSShapeGroup" fill="#F7F7F7" d="M734.977,285c-6.613,0-11.977,5.525-11.977,12.341
			c0,5.452,3.432,10.077,8.191,11.709c0.599,0.114,0.817-0.267,0.817-0.595c0-0.293-0.01-1.068-0.016-2.098
			c-3.332,0.744-4.035-1.655-4.035-1.655c-0.545-1.427-1.33-1.806-1.33-1.806c-1.087-0.767,0.083-0.75,0.083-0.75
			c1.202,0.088,1.834,1.271,1.834,1.271c1.069,1.886,2.804,1.341,3.486,1.023c0.109-0.797,0.418-1.34,0.76-1.648
			c-2.659-0.312-5.456-1.37-5.456-6.099c0-1.348,0.467-2.449,1.233-3.312c-0.123-0.312-0.534-1.566,0.118-3.265
			c0,0,1.006-0.333,3.293,1.265c0.956-0.274,1.98-0.411,2.999-0.416c1.018,0.005,2.042,0.142,3,0.416
			c2.287-1.597,3.291-1.265,3.291-1.265c0.651,1.699,0.242,2.953,0.119,3.265c0.768,0.863,1.229,1.964,1.229,3.312
			c0,4.74-2.8,5.783-5.468,6.09c0.431,0.381,0.812,1.134,0.812,2.284c0,1.649-0.015,2.98-0.015,3.386
			c0,0.33,0.216,0.714,0.824,0.594c4.754-1.635,8.184-6.258,8.184-11.708C746.955,290.525,741.592,285,734.977,285"/>
	</g>
</g>
</svg>
