<?xml version="1.0" encoding="utf-8"?>
<!-- Generator: Adobe Illustrator 16.0.4, SVG Export Plug-In . SVG Version: 6.00 Build 0)  -->
<!DOCTYPE svg PUBLIC "-//W3C//DTD SVG 1.1//EN" "http://www.w3.org/Graphics/SVG/1.1/DTD/svg11.dtd">
<svg version="1.1" id="Layer_1" xmlns="http://www.w3.org/2000/svg" xmlns:xlink="http://www.w3.org/1999/xlink" x="0px" y="0px"
	 width="445px" height="261px" viewBox="0 0 445 261" enable-background="new 0 0 445 261" xml:space="preserve">
<g>
	<g>
		<path fill="#C6C8C9" d="M25.966,105.126c-0.925,0-1.687,0.74-1.811,1.76c0,0.004-4.281,39.1-4.281,39.1l4.281,38.237
			c0.124,1.023,0.886,1.765,1.811,1.765c0.918,0,1.66-0.724,1.807-1.756l4.873-38.246l-4.871-39.102
			C27.626,105.846,26.884,105.126,25.966,105.126z"/>
		<path fill="#C6C8C9" d="M9.868,120.102c-0.908,0-1.626,0.702-1.746,1.703l-3.184,24.181l3.184,23.769c0.12,1,0.838,1.7,1.746,1.7
			c0.883,0,1.598-0.694,1.742-1.691l3.771-23.777l-3.771-24.19C11.468,120.799,10.751,120.102,9.868,120.102z"/>
		<path fill="#C6C8C9" d="M43.071,97.46c-1.15,0-2.068,0.898-2.184,2.137c0,0.003-4.062,46.393-4.062,46.393l4.062,44.698
			c0.115,1.244,1.033,2.14,2.184,2.14c1.129,0,2.045-0.896,2.179-2.131l4.618-44.707l-4.615-46.395
			C45.116,98.356,44.2,97.46,43.071,97.46z"/>
		<path fill="#C6C8C9" d="M60.317,95.82c-1.35,0-2.449,1.08-2.557,2.511L53.92,146l3.841,46.116
			c0.107,1.426,1.207,2.505,2.557,2.505c1.332,0,2.43-1.079,2.551-2.505L67.231,146l-4.363-47.678
			C62.747,96.897,61.649,95.82,60.317,95.82z"/>
		<polygon fill="#C6C8C9" points="80.626,192.495 80.625,192.498 80.625,192.504 		"/>
		<path fill="#C6C8C9" d="M80.625,101.767c-0.112-1.63-1.37-2.869-2.925-2.869c-1.569,0-2.826,1.241-2.924,2.888l-3.625,44.218
			l3.625,46.496c0.098,1.637,1.354,2.88,2.924,2.88c1.554,0,2.811-1.241,2.925-2.882l4.107-46.494L80.625,101.767z"/>
		<path fill="#C6C8C9" d="M95.228,70.817c-1.759,0-3.208,1.434-3.297,3.263c0,0.002-3.404,71.943-3.404,71.943l3.404,46.491
			c0.089,1.814,1.538,3.25,3.297,3.25c1.744,0,3.191-1.436,3.295-3.26v0.014l3.852-46.495l-3.852-71.946
			C98.419,72.248,96.972,70.817,95.228,70.817z"/>
		<path fill="#C6C8C9" d="M112.622,54.243c-1.975,0-3.586,1.596-3.672,3.635c0,0.005-3.182,88.395-3.182,88.395l3.186,46.204
			c0.082,2.021,1.693,3.617,3.668,3.617c1.961,0,3.572-1.596,3.666-3.635l-0.002,0.026l3.602-46.213l-3.6-88.395
			C116.194,55.838,114.583,54.243,112.622,54.243z"/>
		<path fill="#C6C8C9" d="M130.697,46.256c-2.189,0-3.964,1.764-4.042,4.013c0,0.002-2.963,95.772-2.963,95.772l2.965,45.727
			c0.076,2.228,1.851,3.987,4.04,3.987c2.177,0,3.95-1.755,4.04-4.005l-0.002,0.027l3.346-45.736l-3.344-95.774
			C134.647,48.017,132.874,46.256,130.697,46.256z"/>
		<path fill="#C6C8C9" d="M153.054,47.045c-0.078-2.46-2.014-4.385-4.41-4.385c-2.404,0-4.342,1.927-4.412,4.388l-2.744,98.998
			l2.746,45.443c0.068,2.433,2.006,4.356,4.41,4.356c2.396,0,4.33-1.923,4.41-4.376l3.092-45.42L153.054,47.045z"/>
		<polygon fill="#C6C8C9" points="153.054,191.466 153.053,191.47 153.052,191.492 		"/>
		<path fill="#C6C8C9" d="M166.73,44.823c-2.622,0-4.724,2.09-4.785,4.758l-2.524,96.474l2.527,45.009
			c0.059,2.643,2.16,4.738,4.782,4.738c2.611,0,4.71-2.096,4.781-4.761v0.031l2.838-45.018l-2.838-96.479
			C171.44,46.911,169.342,44.823,166.73,44.823z"/>
		<path fill="#C6C8C9" d="M184.957,47.974c-2.835,0-5.101,2.257-5.155,5.135l-2.304,92.951l2.306,44.726
			c0.053,2.849,2.318,5.099,5.153,5.099c2.827,0,5.091-2.25,5.153-5.131v0.037l2.582-44.727L190.11,53.1
			C190.048,50.229,187.784,47.974,184.957,47.974z"/>
		<path fill="#C6C8C9" d="M206.376,30.892c-0.878-0.595-1.929-0.942-3.053-0.942c-1.093,0-2.114,0.332-2.977,0.896
			c-1.504,0.984-2.519,2.683-2.549,4.612l-0.02,1.043l-2.066,109.536c0,0.066,2.086,44.464,2.086,44.464
			c0.001,0.064,0.009,0.127,0.013,0.189c0.062,1.241,0.533,2.383,1.286,3.285c1.018,1.218,2.54,2,4.227,2
			c1.498,0,2.867-0.617,3.867-1.614c1-0.995,1.631-2.369,1.66-3.885l0.23-4.396l2.097-40.01l-2.327-110.618
			C208.817,33.558,207.837,31.882,206.376,30.892z"/>
		<polygon fill="#C6C8C9" points="208.849,190.505 208.85,190.492 208.849,190.507 208.85,190.484 208.851,190.474 208.85,190.477 
			208.85,190.492 		"/>
		<path fill="#C6C8C9" d="M224.611,20.404c-0.882-0.534-1.907-0.847-3-0.847c-1.406,0-2.703,0.505-3.721,1.346
			c-1.309,1.08-2.156,2.713-2.18,4.536l-0.012,0.607l-2.406,120.036l1.227,22.19l1.192,21.594c0.042,3.196,2.687,5.835,5.9,5.835
			c3.203,0,5.848-2.639,5.893-5.882v0.051v0.001l2.625-43.789v-0.001L227.504,25.43C227.475,23.299,226.313,21.433,224.611,20.404z"
			/>
		<path fill="#C6C8C9" d="M386.791,88.976c-7.338,0-14.34,1.488-20.715,4.158c-4.262-48.262-44.734-86.125-94.105-86.125
			c-12.082,0-23.857,2.375-34.26,6.399c-4.043,1.566-5.115,3.171-5.154,6.297c0,0.002,0,169.973,0,169.973
			c0.043,3.277,2.586,5.825,5.785,6.145c0.137,0.015,148.449,0,148.449,0c29.576,0,53.551-23.709,53.551-53.29
			C440.342,112.953,416.367,88.976,386.791,88.976z"/>
	</g>
	<path fill="#C6C8C9" d="M47.696,228.047c-6.281-1.476-7.975-2.265-7.975-4.752c0-1.75,1.412-3.563,5.653-3.563
		c3.622,0,6.451,1.476,8.994,4.075l5.718-5.545c-3.737-3.897-8.261-6.221-14.426-6.221c-7.809,0-14.141,4.415-14.141,11.602
		c0,7.8,5.091,10.122,12.387,11.812c7.467,1.699,8.824,2.837,8.824,5.38c0,2.999-2.211,4.3-6.904,4.3
		c-3.789,0-7.348-1.301-10.125-4.529l-5.713,5.092c2.999,4.412,8.771,7.183,15.386,7.183c10.804,0,15.558-5.087,15.558-12.612
		C60.933,231.667,53.977,229.52,47.696,228.047z M84.134,212.041c-10.803,0-17.194,8.367-17.194,20.422s6.392,20.417,17.194,20.417
		c10.8,0,17.195-8.362,17.195-20.417S94.934,212.041,84.134,212.041z M84.134,245.018c-6.395,0-9.054-5.484-9.054-12.555
		c0-7.074,2.659-12.556,9.054-12.556c6.393,0,9.047,5.481,9.047,12.556C93.181,239.533,90.526,245.018,84.134,245.018z
		 M133.284,234.895c0,6.333-3.11,10.24-8.141,10.24c-5.035,0-8.091-4.018-8.091-10.35v-22.124h-7.919v22.233
		c0,11.538,6.451,17.985,16.01,17.985c10.064,0,16.06-6.623,16.06-18.095v-22.124h-7.919V234.895z M175.372,229.408
		c0,2.205,0.11,7.183,0.11,8.657c-0.507-1.019-1.81-3.005-2.769-4.476l-14.034-20.929h-7.578v39.599h7.809v-17.424
		c0-2.205-0.116-7.182-0.116-8.654c0.514,1.017,1.814,2.996,2.77,4.473l14.541,21.605h7.075v-39.599h-7.808V229.408z
		 M205.742,212.661H193.36v39.599h11.819c10.181,0,20.255-5.886,20.255-19.797C225.435,217.978,217.058,212.661,205.742,212.661z
		 M205.18,244.567h-3.905v-24.208h4.191c8.371,0,11.822,4.008,11.822,12.104C217.288,239.705,213.495,244.567,205.18,244.567z
		 M249.925,219.907c3.562,0,5.828,1.583,7.241,4.295l7.347-3.396c-2.486-5.146-7.01-8.766-14.477-8.766
		c-10.347,0-17.587,8.367-17.587,20.422c0,12.498,6.946,20.417,17.306,20.417c7.186,0,11.935-3.337,14.651-8.939l-6.677-3.963
		c-2.091,3.511-4.187,5.04-7.749,5.04c-5.943,0-9.396-5.434-9.396-12.555C240.584,225.112,243.99,219.907,249.925,219.907z
		 M279.298,212.661h-7.924v39.599h23.81v-7.807h-15.886V212.661z M316.04,212.041c-10.809,0-17.196,8.367-17.196,20.422
		s6.388,20.417,17.196,20.417c10.802,0,17.198-8.362,17.198-20.417S326.842,212.041,316.04,212.041z M316.04,245.018
		c-6.396,0-9.055-5.484-9.055-12.555c0-7.074,2.658-12.556,9.055-12.556c6.387,0,9.041,5.481,9.041,12.556
		C325.081,239.533,322.427,245.018,316.04,245.018z M365.193,234.895c0,6.333-3.102,10.24-8.138,10.24
		c-5.039,0-8.094-4.018-8.094-10.35v-22.124h-7.92v22.233c0,11.538,6.452,17.985,16.014,17.985c10.065,0,16.065-6.623,16.065-18.095
		v-22.124h-7.928V234.895z M395.405,212.661h-12.391v39.599h11.815c10.198,0,20.255-5.886,20.255-19.797
		C415.085,217.978,406.722,212.661,395.405,212.661z M394.83,244.567h-3.896v-24.208h4.186c8.363,0,11.815,4.008,11.815,12.104
		C406.936,239.705,403.151,244.567,394.83,244.567z"/>
</g>
</svg>
