<?xml version="1.0" encoding="utf-8"?>
<!-- Generator: Adobe Illustrator 16.0.4, SVG Export Plug-In . SVG Version: 6.00 Build 0)  -->
<!DOCTYPE svg PUBLIC "-//W3C//DTD SVG 1.1//EN" "http://www.w3.org/Graphics/SVG/1.1/DTD/svg11.dtd">
<svg version="1.1" id="Layer_1" xmlns:sketch="http://www.bohemiancoding.com/sketch/ns"
	 xmlns="http://www.w3.org/2000/svg" xmlns:xlink="http://www.w3.org/1999/xlink" x="0px" y="0px" width="26px" height="26px"
	 viewBox="0 0 26 26" enable-background="new 0 0 26 26" xml:space="preserve">
<title>Imported Layers</title>
<description>Created with Sketch.</description>
<g id="Page-1" sketch:type="MSPage">
	<g id="Artboard-1" transform="translate(-772.000000, -285.000000)" sketch:type="MSArtboardGroup">
		<g id="Imported-Layers" transform="translate(772.000000, 285.000000)" sketch:type="MSLayerGroup">
			<path id="Fill-2" sketch:type="MSShapeGroup" fill="#F7F7F7" d="M23.332,0H2.026c-1.02,0-1.847,0.834-1.847,1.863v22.274
				C0.179,25.166,1.006,26,2.026,26h21.306c1.02,0,1.848-0.834,1.848-1.863V1.863C25.18,0.834,24.352,0,23.332,0L23.332,0z
				 M3.981,10.024h3.776v11.742H3.981V10.024z M5.869,8.422H5.845c-1.267,0-2.087-0.902-2.087-2.029
				c0-1.151,0.845-2.028,2.136-2.028s2.087,0.876,2.111,2.028C8.005,7.52,7.186,8.422,5.869,8.422L5.869,8.422z M21.373,21.766
				h-3.775v-6.281c0-1.577-0.547-2.654-1.914-2.654c-1.043,0-1.664,0.727-1.937,1.427c-0.101,0.251-0.124,0.603-0.124,0.952v6.557
				H9.846c0,0,0.05-10.639,0-11.741h3.777v1.664c0.5-0.8,1.398-1.939,3.402-1.939c2.483,0,4.348,1.679,4.348,5.285V21.766
				L21.373,21.766z"/>
		</g>
	</g>
</g>
</svg>
