<?xml version="1.0" encoding="utf-8"?>
<!-- Generator: Adobe Illustrator 16.0.4, SVG Export Plug-In . SVG Version: 6.00 Build 0)  -->
<!DOCTYPE svg PUBLIC "-//W3C//DTD SVG 1.1//EN" "http://www.w3.org/Graphics/SVG/1.1/DTD/svg11.dtd">
<svg version="1.1" id="Layer_1" xmlns:sketch="http://www.bohemiancoding.com/sketch/ns"
	 xmlns="http://www.w3.org/2000/svg" xmlns:xlink="http://www.w3.org/1999/xlink" x="0px" y="0px" width="25px" height="21px"
	 viewBox="0 0 25 21" enable-background="new 0 0 25 21" xml:space="preserve">
<title>Imported Layers</title>
<description>Created with Sketch.</description>
<g id="Page-1" sketch:type="MSPage">
	<g id="Artboard-1" transform="translate(-623.000000, -287.000000)" sketch:type="MSArtboardGroup">
		<path id="Imported-Layers" sketch:type="MSShapeGroup" fill="#C6C8CA" d="M645.055,290.312c1.059-0.655,1.871-1.69,2.255-2.925
			c-0.991,0.605-2.089,1.046-3.257,1.283c-0.936-1.027-2.27-1.669-3.744-1.669c-2.832,0-5.129,2.367-5.129,5.286
			c0,0.415,0.045,0.818,0.133,1.205c-4.263-0.221-8.042-2.325-10.572-5.523c-0.441,0.781-0.694,1.688-0.694,2.658
			c0,1.834,0.906,3.452,2.282,4.4c-0.841-0.027-1.631-0.265-2.323-0.661c-0.001,0.022-0.001,0.044-0.001,0.066
			c0,2.562,1.768,4.698,4.115,5.184c-0.431,0.12-0.884,0.186-1.352,0.186c-0.331,0-0.652-0.033-0.965-0.095
			c0.653,2.1,2.547,3.629,4.792,3.671c-1.756,1.418-3.967,2.263-6.37,2.263c-0.414,0-0.822-0.025-1.224-0.074
			c2.27,1.5,4.966,2.376,7.862,2.376c9.435,0,14.593-8.056,14.593-15.041c0-0.229-0.004-0.458-0.015-0.684
			c1.003-0.745,1.872-1.676,2.56-2.736C647.08,289.899,646.092,290.184,645.055,290.312z"/>
	</g>
</g>
</svg>
