<?xml version="1.0" encoding="UTF-8" standalone="no"?>
<svg width="83px" height="25px" viewBox="0 0 83 25" version="1.1" xmlns="http://www.w3.org/2000/svg" xmlns:xlink="http://www.w3.org/1999/xlink" xmlns:sketch="http://www.bohemiancoding.com/sketch/ns">
    <!-- Generator: Sketch 3.0.1 (7597) - http://www.bohemiancoding.com/sketch -->
    <title>Imported Layers</title>
    <description>Created with Sketch.</description>
    <defs></defs>
    <g id="Page-1" stroke="none" stroke-width="1" fill="none" fill-rule="evenodd" sketch:type="MSPage">
        <g id="Artboard-1" sketch:type="MSArtboardGroup" transform="translate(-828.000000, -286.000000)" fill="#FFFFFF">
            <g id="Imported-Layers" sketch:type="MSLayerGroup" transform="translate(828.000000, 286.000000)">
                <path d="M3.45962016,11.8551282 L0.147341085,11.8551282 L0.147341085,7.79294872 L3.55323643,7.79294872 L3.55323643,6.76121795 C3.55323643,1.76378205 5.83412791,0.0224358974 10.3335,0.0224358974 C11.5521202,0.0224358974 12.4892481,0.216025641 13.207938,0.344871795 L12.8640349,4.34294872 C12.3956318,4.18173077 11.926907,4.0849359 11.0833953,4.0849359 C9.6460155,4.0849359 9.08367442,5.11666667 9.08367442,6.76121795 L9.08367442,7.79294872 L13.0827946,7.79294872 L13.0827946,11.8551282 L9.08367442,11.8551282 L9.08367442,24.5903846 L3.45962016,24.5903846 L3.45962016,11.8551282" id="Fill-1" sketch:type="MSShapeGroup"></path>
                <path d="M16.0196434,0.409294872 L21.6436977,0.409294872 L21.6436977,24.5900641 L16.0196434,24.5900641 L16.0196434,0.409294872 Z" id="Fill-2" sketch:type="MSShapeGroup"></path>
                <path d="M26.455124,0.796153846 L32.0791783,0.796153846 L32.0791783,5.05192308 L26.455124,5.05192308 L26.455124,0.796153846 Z" id="Fill-3" sketch:type="MSShapeGroup"></path>
                <path d="M26.455124,7.79294872 L32.0791783,7.79294872 L32.0791783,24.5903846 L26.455124,24.5903846 L26.455124,7.79294872 Z" id="Fill-4" sketch:type="MSShapeGroup"></path>
                <path d="M48.9828682,12.5964744 C47.9518023,11.9519231 46.9207364,11.661859 45.5772946,11.661859 C43.1400543,11.661859 41.2654767,13.4025641 41.2654767,16.3044872 C41.2654767,18.9807692 43.4527519,20.7211538 45.890314,20.7211538 C47.1707016,20.7211538 48.4517326,20.4314103 49.3891822,19.9153846 L49.5143256,24.2355769 C48.1081512,24.7195513 46.4211279,24.9775641 44.9213372,24.9775641 C39.5469264,24.9775641 35.4538682,21.7532051 35.4538682,16.2076923 C35.4538682,10.6301282 39.5469264,7.40576923 44.9213372,7.40576923 C46.6083605,7.40576923 48.1081512,7.69615385 49.3891822,8.34070513 L48.9828682,12.5964744" id="Fill-5" sketch:type="MSShapeGroup"></path>
                <path d="M51.8579496,0.409294872 L57.4816822,0.409294872 L57.4816822,14.8538462 L57.5444147,14.8538462 L62.2310194,7.79294872 L68.3862093,7.79294872 L62.7306279,15.4983974 L68.8549341,24.5903846 L62.0431434,24.5903846 L57.5444147,16.2724359 L57.4816822,16.2724359 L57.4816822,24.5903846 L51.8579496,24.5903846 L51.8579496,0.409294872" id="Fill-6" sketch:type="MSShapeGroup"></path>
                <path d="M82.570845,12.4352564 C81.9464147,12.2419872 81.3210194,12.2419872 80.665062,12.2419872 C78.0405891,12.2419872 76.5720039,14.2086538 76.5720039,17.4974359 L76.5720039,24.5903846 L70.9479496,24.5903846 L70.9479496,7.79294872 L76.0720736,7.79294872 L76.0720736,10.888141 L76.1348062,10.888141 C77.1031395,8.7599359 78.509314,7.40576923 80.9465543,7.40576923 C81.6018682,7.40576923 82.2893527,7.5025641 82.8523372,7.59935897 L82.570845,12.4352564" id="Fill-7" sketch:type="MSShapeGroup"></path>
            </g>
        </g>
    </g>
</svg>