<?xml version="1.0" encoding="UTF-8" standalone="no"?>
<svg width="24px" height="25px" viewBox="0 0 24 25" version="1.1" xmlns="http://www.w3.org/2000/svg" xmlns:xlink="http://www.w3.org/1999/xlink" xmlns:sketch="http://www.bohemiancoding.com/sketch/ns">
    <!-- Generator: Sketch 3.0.1 (7597) - http://www.bohemiancoding.com/sketch -->
    <title>Imported Layers</title>
    <description>Created with Sketch.</description>
    <defs></defs>
    <g id="Page-1" stroke="none" stroke-width="1" fill="none" fill-rule="evenodd" sketch:type="MSPage">
        <g id="Artboard-1" sketch:type="MSArtboardGroup" transform="translate(-723.000000, -285.000000)" fill="#FFFFFF">
            <path d="M734.976471,285 C728.363235,285 723,290.525 723,297.340909 C723,302.792424 726.431618,307.418182 731.191176,309.05 C731.790441,309.163636 732.008824,308.782576 732.008824,308.455303 C732.008824,308.162121 731.998529,307.386364 731.992647,306.356818 C728.661029,307.102273 727.958088,304.702273 727.958088,304.702273 C727.413235,303.276515 726.627941,302.89697 726.627941,302.89697 C725.540441,302.131061 726.710294,302.14697 726.710294,302.14697 C727.9125,302.234091 728.544853,303.418939 728.544853,303.418939 C729.613971,305.304545 731.348529,304.759848 732.030882,304.443939 C732.139706,303.646212 732.449265,303.10303 732.791176,302.793939 C730.131618,302.482576 727.335294,301.424242 727.335294,296.695455 C727.335294,295.347727 727.802206,294.246212 728.568382,293.383333 C728.445588,293.071212 728.034559,291.816667 728.686029,290.118182 C728.686029,290.118182 729.691912,289.785606 731.979412,291.382576 C732.935294,291.109091 733.959559,290.97197 734.977941,290.967424 C735.995588,290.97197 737.019853,291.109091 737.977206,291.382576 C740.263235,289.785606 741.267647,290.118182 741.267647,290.118182 C741.920588,291.816667 741.509559,293.071212 741.386765,293.383333 C742.154412,294.246212 742.617647,295.347727 742.617647,296.695455 C742.617647,301.435606 739.817647,302.478788 737.149265,302.784848 C737.579412,303.165909 737.961765,303.918939 737.961765,305.069697 C737.961765,306.719697 737.947794,308.050758 737.947794,308.455303 C737.947794,308.785606 738.163235,309.168939 738.771324,309.048485 C743.526471,307.413636 746.955147,302.791667 746.955147,297.340909 C746.955147,290.525 741.591912,285 734.976471,285" id="Imported-Layers" sketch:type="MSShapeGroup"></path>
        </g>
    </g>
</svg>