<?xml version="1.0" encoding="UTF-8" standalone="no"?>
<svg width="26px" height="26px" viewBox="0 0 26 26" version="1.1" xmlns="http://www.w3.org/2000/svg" xmlns:xlink="http://www.w3.org/1999/xlink" xmlns:sketch="http://www.bohemiancoding.com/sketch/ns">
    <!-- Generator: Sketch 3.0.1 (7597) - http://www.bohemiancoding.com/sketch -->
    <title>Imported Layers</title>
    <description>Created with Sketch.</description>
    <defs></defs>
    <g id="Page-1" stroke="none" stroke-width="1" fill="none" fill-rule="evenodd" sketch:type="MSPage">
        <g id="Artboard-1" sketch:type="MSArtboardGroup" transform="translate(-772.000000, -285.000000)" fill="#FFFFFF">
            <g id="Imported-Layers" sketch:type="MSLayerGroup" transform="translate(772.000000, 285.000000)">
                <path d="M23.3314063,0 L2.02625752,0 C1.00597971,0 0.179,0.834126136 0.179,1.86280064 L0.179,24.1371994 C0.179,25.1662213 1.00597971,26 2.02625752,26 L23.3314063,26 C24.3516841,26 25.179,25.1662213 25.179,24.1371994 L25.179,1.86280064 C25.179,0.834126136 24.3516841,0 23.3314063,0 L23.3314063,0 Z M3.98108964,10.0241048 L7.75662179,10.0241048 L7.75662179,21.7644041 L3.98108964,21.7644041 L3.98108964,10.0241048 Z M5.8690238,8.42185997 L5.84448335,8.42185997 C4.5774563,8.42185997 3.75787235,7.51998931 3.75787235,6.39265099 C3.75787235,5.24134153 4.60233293,4.36483164 5.8942366,4.36483164 C7.18580409,4.36483164 7.98084759,5.24134153 8.00538805,6.39265099 C8.00538805,7.51998931 7.18580409,8.42185997 5.8690238,8.42185997 L5.8690238,8.42185997 Z M21.3728763,21.7644041 L17.597008,21.7644041 L17.597008,15.483271 C17.597008,13.9056921 17.0507307,12.8290754 15.6841972,12.8290754 C14.6410598,12.8290754 14.0198165,13.5551577 13.746846,14.2558792 C13.6470033,14.5070551 13.6224628,14.8572421 13.6224628,15.2077766 L13.6224628,21.7644041 L9.84625833,21.7644041 C9.84625833,21.7644041 9.89601158,11.1260823 9.84625833,10.0241048 L13.6224628,10.0241048 L13.6224628,11.6874933 C14.1236932,10.8877606 15.0209326,9.74826296 17.0255179,9.74826296 C19.5101549,9.74826296 21.3728763,11.4269375 21.3728763,15.0330305 L21.3728763,21.7644041 L21.3728763,21.7644041 Z" id="Fill-2" sketch:type="MSShapeGroup"></path>
            </g>
        </g>
    </g>
</svg>