<?xml version="1.0" encoding="UTF-8" standalone="no"?>
<svg width="25px" height="21px" viewBox="0 0 25 21" version="1.1" xmlns="http://www.w3.org/2000/svg" xmlns:xlink="http://www.w3.org/1999/xlink" xmlns:sketch="http://www.bohemiancoding.com/sketch/ns">
    <!-- Generator: Sketch 3.0.1 (7597) - http://www.bohemiancoding.com/sketch -->
    <title>Imported Layers</title>
    <description>Created with Sketch.</description>
    <defs></defs>
    <g id="Page-1" stroke="none" stroke-width="1" fill="none" fill-rule="evenodd" sketch:type="MSPage">
        <g id="Artboard-1" sketch:type="MSArtboardGroup" transform="translate(-623.000000, -287.000000)" fill="#FFFFFF">
            <path d="M645.05425,290.311301 C646.113,289.656951 646.926375,288.620994 647.309375,287.386503 C646.31825,287.992411 645.220625,288.43238 644.05225,288.669307 C643.11675,287.641982 641.78375,287 640.3085,287 C637.476,287 635.179375,289.366816 635.179375,292.286331 C635.179375,292.700534 635.22475,293.104043 635.31225,293.491061 C631.0495,293.270497 627.270125,291.165988 624.7405,287.967675 C624.299,288.748411 624.046,289.656436 624.046,290.62527 C624.046,292.459356 624.9515,294.077387 626.32775,295.02535 C625.487,294.997908 624.696125,294.76008 624.004625,294.364172 C624.004125,294.386331 624.004125,294.408362 624.004125,294.43065 C624.004125,296.992006 625.772125,299.128466 628.1185,299.614301 C627.688125,299.735018 627.235,299.799693 626.76725,299.799693 C626.43675,299.799693 626.115375,299.766454 625.80225,299.704871 C626.454875,301.805 628.349125,303.333491 630.5935,303.376006 C628.838125,304.793957 626.626625,305.638982 624.2235,305.638982 C623.8095,305.638982 623.40125,305.613988 623,305.565031 C625.269875,307.065049 627.965875,307.94035 630.862375,307.94035 C640.2965,307.94035 645.455625,299.884982 645.455625,292.899325 C645.455625,292.670129 645.450625,292.442092 645.440625,292.215344 C646.442875,291.470037 647.312375,290.538951 648,289.478902 C647.08025,289.899288 646.091625,290.183497 645.05425,290.311301 Z" id="Imported-Layers" sketch:type="MSShapeGroup"></path>
        </g>
    </g>
</svg>