<?xml version="1.0" encoding="iso-8859-1"?>
<!-- Generator: Adobe Illustrator 16.0.0, SVG Export Plug-In . SVG Version: 6.00 Build 0)  -->
<!DOCTYPE svg PUBLIC "-//W3C//DTD SVG 1.1//EN" "http://www.w3.org/Graphics/SVG/1.1/DTD/svg11.dtd">
<svg version="1.1" id="Layer_1" xmlns="http://www.w3.org/2000/svg" xmlns:xlink="http://www.w3.org/1999/xlink" x="0px" y="0px"
	 width="218.425px" height="41.236px" viewBox="0 0 218.425 41.236" style="enable-background:new 0 0 218.425 41.236;"
	 xml:space="preserve">
<g>
	<g>
		<g>
			<circle style="fill:#B53856;" cx="8.675" cy="5.343" r="5.343"/>
		</g>
		<g>
			<path style="fill:#B53856;" d="M16.172,25.427c0.922,0,1.405-2.232,1.073-4.963l-0.396-3.256
				c-0.332-2.73-2.854-4.963-5.604-4.963H6.104c-2.75,0-5.271,2.233-5.604,4.963l-0.396,3.256c-0.332,2.73,0.151,4.963,1.072,4.963
				c0.922,0,1.801,2.247,1.954,4.992l0.324,5.824c0.152,2.746,2.501,4.992,5.22,4.992s5.068-2.246,5.22-4.992l0.324-5.824
				C14.371,27.674,15.25,25.427,16.172,25.427z"/>
		</g>
	</g>
	<g>
		<g>
			<circle style="fill:#FFFFFF;" cx="58.944" cy="5.343" r="5.343"/>
		</g>
		<g>
			<path style="fill:#FFFFFF;" d="M66.442,25.427c0.921,0,1.404-2.232,1.072-4.963l-0.396-3.256
				c-0.332-2.73-2.854-4.963-5.604-4.963h-5.14c-2.75,0-5.271,2.233-5.604,4.963l-0.396,3.256c-0.332,2.73,0.15,4.963,1.072,4.963
				s1.801,2.247,1.953,4.992l0.324,5.824c0.152,2.746,2.502,4.992,5.22,4.992c2.719,0,5.068-2.246,5.221-4.992l0.324-5.824
				C64.641,27.674,65.52,25.427,66.442,25.427z"/>
		</g>
	</g>
	<g>
		<g>
			<circle style="fill:#FFFFFF;" cx="109.212" cy="5.343" r="5.343"/>
		</g>
		<g>
			<path style="fill:#FFFFFF;" d="M116.71,25.427c0.922,0,1.404-2.232,1.072-4.963l-0.396-3.256
				c-0.332-2.73-2.854-4.963-5.604-4.963h-5.141c-2.75,0-5.271,2.233-5.604,4.963l-0.396,3.256c-0.332,2.73,0.151,4.963,1.073,4.963
				s1.801,2.247,1.953,4.992l0.323,5.824c0.152,2.746,2.501,4.992,5.22,4.992s5.068-2.246,5.221-4.992l0.323-5.824
				C114.909,27.674,115.789,25.427,116.71,25.427z"/>
		</g>
	</g>
	<g>
		<g>
			<circle style="fill:#FFFFFF;" cx="159.482" cy="5.343" r="5.343"/>
		</g>
		<g>
			<path style="fill:#FFFFFF;" d="M166.979,25.427c0.923,0,1.405-2.232,1.073-4.963l-0.396-3.256
				c-0.332-2.73-2.854-4.963-5.604-4.963h-5.141c-2.75,0-5.271,2.233-5.604,4.963l-0.396,3.256c-0.332,2.73,0.15,4.963,1.072,4.963
				s1.801,2.247,1.953,4.992l0.324,5.824c0.152,2.746,2.502,4.992,5.221,4.992s5.067-2.246,5.22-4.992l0.323-5.824
				C165.177,27.674,166.056,25.427,166.979,25.427z"/>
		</g>
	</g>
	<g>
		<g>
			<circle style="fill:#FFFFFF;" cx="209.751" cy="5.343" r="5.343"/>
		</g>
		<g>
			<path style="fill:#FFFFFF;" d="M217.248,25.427c0.922,0,1.405-2.232,1.073-4.963l-0.396-3.256
				c-0.332-2.73-2.854-4.963-5.604-4.963h-5.14c-2.75,0-5.271,2.233-5.604,4.963l-0.396,3.256c-0.332,2.73,0.15,4.963,1.072,4.963
				s1.801,2.247,1.953,4.992l0.324,5.824c0.152,2.746,2.502,4.992,5.22,4.992s5.067-2.246,5.22-4.992l0.324-5.824
				C215.447,27.674,216.326,25.427,217.248,25.427z"/>
		</g>
	</g>
</g>
</svg>
