<?xml version="1.0" encoding="iso-8859-1"?>
<!-- Generator: Adobe Illustrator 16.0.0, SVG Export Plug-In . SVG Version: 6.00 Build 0)  -->
<!DOCTYPE svg PUBLIC "-//W3C//DTD SVG 1.1//EN" "http://www.w3.org/Graphics/SVG/1.1/DTD/svg11.dtd">
<svg version="1.1" id="Layer_1" xmlns="http://www.w3.org/2000/svg" xmlns:xlink="http://www.w3.org/1999/xlink" x="0px" y="0px"
	 width="228.27px" height="29.006px" viewBox="0 0 228.27 29.006" style="enable-background:new 0 0 228.27 29.006;"
	 xml:space="preserve">
<g>
	<g>
		<path style="fill:#B53856;" d="M16.704,12.023c0,0-7.112,5.401-6.433,6.348c0.684,0.947,8.102-4.028,8.102-4.028l2.794-2.009
			l-0.248-1.546l-1.42-0.775L16.704,12.023z"/>
		
			<ellipse transform="matrix(-0.5838 -0.8119 0.8119 -0.5838 26.1088 33.7549)" style="fill:#B53856;" cx="21.706" cy="10.186" rx="1.721" ry="1.458"/>
		<polyline style="fill:#B53856;" points="22.793,10.195 27.348,6.237 22.043,9.154 		"/>
		<path style="fill:#B53856;" d="M10.299,0.162c-1.82,1.021,1.202,4.416,2.971,7.377c1.77,2.959,3.73,5.043,4.38,4.654
			c0.651-0.388-0.257-3.103-2.026-6.063C13.855,3.172,12.119-0.86,10.299,0.162z"/>
		<path style="fill:#B53856;" d="M27.699,24.362c-1.547,1.4-3.805-2.547-6.047-5.166s-3.594-5.141-3.019-5.633s2.86,1.23,5.101,3.85
			C25.978,20.03,29.247,22.961,27.699,24.362z"/>
		<path style="fill:#B53856;" d="M19.164,10.253l0.131-3.122l2.441-3.551c0,0,1.006-3.25,0.551-3.383
			c-0.457-0.136-1.248,3.164-1.248,3.164l-2.396,3.361l-0.28,4.107"/>
		<path style="fill:#B53856;" d="M19.164,10.253l0.131-3.122l2.441-3.551c0,0,1.006-3.25,0.551-3.383
			c-0.457-0.136-1.248,3.164-1.248,3.164l-2.396,3.361l-0.28,4.107"/>
		<path style="fill:#B53856;" d="M16.963,12.061l-9.197-1.775c0,0-4.397-3.415-4.092-3.742c0.303-0.326,4.535,3.061,4.535,3.061
			l7.944,1.332"/>
		<path style="fill:#B53856;" d="M14.731,14.076c0,0-3.541-0.578-3.755-0.426c-0.214,0.154-3.505,2.522-3.505,2.522
			S0.475,17.036,0,16.477c0.417-0.369,4.928-0.523,7.201-1.08c0,0,2.963-2.526,3.386-2.686c0.424-0.161,5.123,0.628,5.123,0.628"/>
		<path style="fill:#B53856;" d="M20.807,12.535l3.002,0.871l4.143-1.184c0,0,3.4,0.082,3.383,0.557
			c-0.019,0.475-3.397,0.174-3.397,0.174l-3.948,1.203l-3.984-1.043"/>
		<path style="fill:#B53856;" d="M18.596,14.333l-1.243,9.285c0,0,1.838,5.256,2.244,5.068c0.407-0.184-1.458-5.273-1.458-5.273
			l1.266-7.955"/>
		<path style="fill:#B53856;" d="M15.975,15.805c0,0-0.578,3.543-0.791,3.695c-0.214,0.154-3.507,2.521-3.507,2.521
			s-3.046,6.359-2.667,6.984c0.484-0.275,2.065-4.504,3.318-6.48c0,0,3.335-2.006,3.623-2.355c0.286-0.35,1.035-5.057,1.035-5.057"
			/>
	</g>
	<g>
		<circle style="fill:#FFFFFF;" cx="48.868" cy="14.464" r="6.663"/>
		
			<line style="fill:none;stroke:#FFFFFF;stroke-width:2;stroke-linecap:round;stroke-miterlimit:10;" x1="44.185" y1="2.941" x2="45.663" y2="6.578"/>
		
			<line style="fill:none;stroke:#FFFFFF;stroke-width:2;stroke-linecap:round;stroke-miterlimit:10;" x1="52.074" y1="22.348" x2="53.553" y2="25.985"/>
		
			<line style="fill:none;stroke:#FFFFFF;stroke-width:2;stroke-linecap:round;stroke-miterlimit:10;" x1="37.347" y1="19.149" x2="40.982" y2="17.672"/>
		
			<line style="fill:none;stroke:#FFFFFF;stroke-width:2;stroke-linecap:round;stroke-miterlimit:10;" x1="56.754" y1="11.26" x2="60.39" y2="9.781"/>
		
			<line style="fill:none;stroke:#FFFFFF;stroke-width:2;stroke-linecap:round;stroke-miterlimit:10;" x1="37.409" y1="9.631" x2="41.024" y2="11.156"/>
		
			<line style="fill:none;stroke:#FFFFFF;stroke-width:2;stroke-linecap:round;stroke-miterlimit:10;" x1="56.712" y1="17.776" x2="60.327" y2="19.301"/>
		
			<line style="fill:none;stroke:#FFFFFF;stroke-width:2;stroke-linecap:round;stroke-miterlimit:10;" x1="44.033" y1="25.924" x2="45.559" y2="22.311"/>
		
			<line style="fill:none;stroke:#FFFFFF;stroke-width:2;stroke-linecap:round;stroke-miterlimit:10;" x1="52.179" y1="6.625" x2="53.704" y2="3.007"/>
	</g>
	<g>
		<circle style="fill:#FFFFFF;" cx="82.07" cy="14.464" r="6.664"/>
		
			<line style="fill:none;stroke:#FFFFFF;stroke-width:2;stroke-linecap:round;stroke-miterlimit:10;" x1="77.386" y1="2.941" x2="78.864" y2="6.578"/>
		
			<line style="fill:none;stroke:#FFFFFF;stroke-width:2;stroke-linecap:round;stroke-miterlimit:10;" x1="85.275" y1="22.348" x2="86.754" y2="25.985"/>
		
			<line style="fill:none;stroke:#FFFFFF;stroke-width:2;stroke-linecap:round;stroke-miterlimit:10;" x1="70.548" y1="19.149" x2="74.184" y2="17.672"/>
		
			<line style="fill:none;stroke:#FFFFFF;stroke-width:2;stroke-linecap:round;stroke-miterlimit:10;" x1="89.956" y1="11.26" x2="93.591" y2="9.781"/>
		
			<line style="fill:none;stroke:#FFFFFF;stroke-width:2;stroke-linecap:round;stroke-miterlimit:10;" x1="70.611" y1="9.631" x2="74.226" y2="11.156"/>
		
			<line style="fill:none;stroke:#FFFFFF;stroke-width:2;stroke-linecap:round;stroke-miterlimit:10;" x1="89.913" y1="17.776" x2="93.528" y2="19.301"/>
		
			<line style="fill:none;stroke:#FFFFFF;stroke-width:2;stroke-linecap:round;stroke-miterlimit:10;" x1="77.235" y1="25.924" x2="78.76" y2="22.311"/>
		
			<line style="fill:none;stroke:#FFFFFF;stroke-width:2;stroke-linecap:round;stroke-miterlimit:10;" x1="85.38" y1="6.625" x2="86.905" y2="3.007"/>
	</g>
	<g>
		<circle style="fill:#FFFFFF;" cx="115.271" cy="14.464" r="6.663"/>
		
			<line style="fill:none;stroke:#FFFFFF;stroke-width:2;stroke-linecap:round;stroke-miterlimit:10;" x1="110.587" y1="2.941" x2="112.065" y2="6.578"/>
		
			<line style="fill:none;stroke:#FFFFFF;stroke-width:2;stroke-linecap:round;stroke-miterlimit:10;" x1="118.477" y1="22.348" x2="119.955" y2="25.985"/>
		
			<line style="fill:none;stroke:#FFFFFF;stroke-width:2;stroke-linecap:round;stroke-miterlimit:10;" x1="103.749" y1="19.149" x2="107.385" y2="17.672"/>
		
			<line style="fill:none;stroke:#FFFFFF;stroke-width:2;stroke-linecap:round;stroke-miterlimit:10;" x1="123.156" y1="11.26" x2="126.793" y2="9.781"/>
		
			<line style="fill:none;stroke:#FFFFFF;stroke-width:2;stroke-linecap:round;stroke-miterlimit:10;" x1="103.812" y1="9.631" x2="107.427" y2="11.156"/>
		
			<line style="fill:none;stroke:#FFFFFF;stroke-width:2;stroke-linecap:round;stroke-miterlimit:10;" x1="123.114" y1="17.776" x2="126.729" y2="19.301"/>
		
			<line style="fill:none;stroke:#FFFFFF;stroke-width:2;stroke-linecap:round;stroke-miterlimit:10;" x1="110.436" y1="25.924" x2="111.961" y2="22.311"/>
		
			<line style="fill:none;stroke:#FFFFFF;stroke-width:2;stroke-linecap:round;stroke-miterlimit:10;" x1="118.581" y1="6.625" x2="120.106" y2="3.007"/>
	</g>
	<g>
		<circle style="fill:#FFFFFF;" cx="148.472" cy="14.464" r="6.663"/>
		
			<line style="fill:none;stroke:#FFFFFF;stroke-width:2;stroke-linecap:round;stroke-miterlimit:10;" x1="143.788" y1="2.941" x2="145.267" y2="6.578"/>
		
			<line style="fill:none;stroke:#FFFFFF;stroke-width:2;stroke-linecap:round;stroke-miterlimit:10;" x1="151.678" y1="22.348" x2="153.156" y2="25.985"/>
		
			<line style="fill:none;stroke:#FFFFFF;stroke-width:2;stroke-linecap:round;stroke-miterlimit:10;" x1="136.95" y1="19.149" x2="140.586" y2="17.672"/>
		
			<line style="fill:none;stroke:#FFFFFF;stroke-width:2;stroke-linecap:round;stroke-miterlimit:10;" x1="156.357" y1="11.26" x2="159.994" y2="9.781"/>
		
			<line style="fill:none;stroke:#FFFFFF;stroke-width:2;stroke-linecap:round;stroke-miterlimit:10;" x1="137.014" y1="9.631" x2="140.629" y2="11.156"/>
		
			<line style="fill:none;stroke:#FFFFFF;stroke-width:2;stroke-linecap:round;stroke-miterlimit:10;" x1="156.315" y1="17.776" x2="159.931" y2="19.301"/>
		
			<line style="fill:none;stroke:#FFFFFF;stroke-width:2;stroke-linecap:round;stroke-miterlimit:10;" x1="143.637" y1="25.924" x2="145.162" y2="22.311"/>
		
			<line style="fill:none;stroke:#FFFFFF;stroke-width:2;stroke-linecap:round;stroke-miterlimit:10;" x1="151.782" y1="6.625" x2="153.308" y2="3.007"/>
	</g>
	<g>
		<circle style="fill:#FFFFFF;" cx="181.673" cy="14.464" r="6.663"/>
		
			<line style="fill:none;stroke:#FFFFFF;stroke-width:2;stroke-linecap:round;stroke-miterlimit:10;" x1="176.989" y1="2.941" x2="178.468" y2="6.578"/>
		
			<line style="fill:none;stroke:#FFFFFF;stroke-width:2;stroke-linecap:round;stroke-miterlimit:10;" x1="184.879" y1="22.348" x2="186.357" y2="25.985"/>
		
			<line style="fill:none;stroke:#FFFFFF;stroke-width:2;stroke-linecap:round;stroke-miterlimit:10;" x1="170.151" y1="19.149" x2="173.787" y2="17.672"/>
		
			<line style="fill:none;stroke:#FFFFFF;stroke-width:2;stroke-linecap:round;stroke-miterlimit:10;" x1="189.559" y1="11.26" x2="193.195" y2="9.781"/>
		
			<line style="fill:none;stroke:#FFFFFF;stroke-width:2;stroke-linecap:round;stroke-miterlimit:10;" x1="170.215" y1="9.631" x2="173.83" y2="11.156"/>
		
			<line style="fill:none;stroke:#FFFFFF;stroke-width:2;stroke-linecap:round;stroke-miterlimit:10;" x1="189.517" y1="17.776" x2="193.132" y2="19.301"/>
		
			<line style="fill:none;stroke:#FFFFFF;stroke-width:2;stroke-linecap:round;stroke-miterlimit:10;" x1="176.838" y1="25.924" x2="178.363" y2="22.311"/>
		
			<line style="fill:none;stroke:#FFFFFF;stroke-width:2;stroke-linecap:round;stroke-miterlimit:10;" x1="184.983" y1="6.625" x2="186.509" y2="3.007"/>
	</g>
	<g>
		<path style="fill:none;stroke:#FFFFFF;stroke-width:2;stroke-miterlimit:10;" d="M227.27,14.433
			c0.017,6.849-5.52,12.412-12.367,12.425c-6.846,0.018-12.408-5.52-12.424-12.367C202.463,7.643,208,2.086,214.845,2.069
			C221.691,2.055,227.254,7.584,227.27,14.433z"/>
		<circle style="fill:#FFFFFF;" cx="210.692" cy="9.512" r="1.466"/>
		
			<ellipse style="fill:none;stroke:#FFFFFF;stroke-linecap:round;stroke-miterlimit:10;" cx="207.827" cy="13.807" rx="1.513" ry="1.45"/>
		<circle style="fill:#FFFFFF;" cx="218.817" cy="9.512" r="1.466"/>
		<path style="fill:none;stroke:#FFFFFF;stroke-linecap:round;stroke-miterlimit:10;" d="M207.688,20.776
			c2.125-4.18,11.625-4.492,14.375,0"/>
		<line style="fill:none;stroke:#FFFFFF;stroke-width:2;stroke-miterlimit:10;" x1="211.061" y1="18.411" x2="208.37" y2="14.756"/>
	</g>
</g>
</svg>
